<?xml version="1.0" encoding="utf-8" standalone="no"?>
<!DOCTYPE svg PUBLIC "-//W3C//DTD SVG 1.1//EN"
  "http://www.w3.org/Graphics/SVG/1.1/DTD/svg11.dtd">
<svg xmlns:xlink="http://www.w3.org/1999/xlink" width="741.6pt" height="403.2pt" viewBox="0 0 741.6 403.2" xmlns="http://www.w3.org/2000/svg" version="1.1">
 <metadata>
  <rdf:RDF xmlns:dc="http://purl.org/dc/elements/1.1/" xmlns:cc="http://creativecommons.org/ns#" xmlns:rdf="http://www.w3.org/1999/02/22-rdf-syntax-ns#">
   <cc:Work>
    <dc:type rdf:resource="http://purl.org/dc/dcmitype/StillImage"/>
    <dc:date>2026-09-25T03:47:49.883024</dc:date>
    <dc:format>image/svg+xml</dc:format>
    <dc:creator>
     <cc:Agent>
      <dc:title>Matplotlib v3.10.3, https://matplotlib.org/</dc:title>
     </cc:Agent>
    </dc:creator>
   </cc:Work>
  </rdf:RDF>
 </metadata>
 <defs>
  <style type="text/css">*{stroke-linejoin: round; stroke-linecap: butt}</style>
 </defs>
 <g id="figure_1">
  <g id="patch_1">
   <path d="M 0 403.2 
L 741.6 403.2 
L 741.6 0 
L 0 0 
z
" style="fill: #070b14"/>
  </g>
  <g id="axes_1">
   <g id="patch_2">
    <path d="M 103.824 322.56 
L 645.192 322.56 
L 645.192 84.672 
L 103.824 84.672 
z
" style="fill: #070b14"/>
   </g>
   <g id="matplotlib.axis_1"/>
   <g id="matplotlib.axis_2"/>
   <g id="line2d_1">
    <path d="M 168.11145 128.919168 
L 168.680114 129.606844 
L 169.248778 130.29452 
L 169.817442 130.982197 
L 170.386105 131.669873 
L 170.954769 132.357549 
L 171.523433 133.045225 
L 172.092097 133.732902 
L 172.660761 134.420578 
L 173.229425 135.108254 
L 173.798089 135.79593 
L 174.366753 136.483607 
L 174.935416 137.171283 
L 175.50408 137.858959 
L 176.072744 138.546635 
L 176.641408 139.234312 
L 177.210072 139.921988 
L 177.778736 140.609664 
L 178.3474 141.29734 
L 178.916063 141.985016 
L 179.484727 142.672693 
L 180.053391 143.360369 
L 180.622055 144.048045 
L 181.190719 144.735721 
L 181.759383 145.423398 
L 182.328047 146.111074 
L 182.896711 146.79875 
L 183.465374 147.486426 
L 184.034038 148.174103 
L 184.602702 148.861779 
L 185.171366 149.549455 
L 185.74003 150.237131 
L 186.308694 150.924808 
L 186.877358 151.612484 
L 187.446021 152.30016 
L 188.014685 152.987836 
L 188.583349 153.675512 
L 189.152013 154.363189 
L 189.720677 155.050865 
L 190.289341 155.738541 
L 190.858005 156.426217 
L 191.426668 157.113894 
L 191.995332 157.80157 
L 192.563996 158.489246 
L 193.13266 159.176922 
L 193.701324 159.864599 
L 194.269988 160.552275 
L 194.838652 161.239951 
L 195.407316 161.927627 
L 195.975979 162.615304 
L 196.544643 163.30298 
L 197.113307 163.990656 
L 197.681971 164.678332 
L 198.250635 165.366008 
L 198.819299 166.053685 
L 199.387963 166.741361 
L 199.956626 167.429037 
L 200.52529 168.116713 
L 201.093954 168.80439 
L 201.662618 169.492066 
L 202.231282 170.179742 
L 202.799946 170.867418 
L 203.36861 171.555095 
L 203.937274 172.242771 
L 204.505937 172.930447 
L 205.074601 173.618123 
L 205.643265 174.3058 
L 206.211929 174.993476 
L 206.780593 175.681152 
L 207.349257 176.368828 
L 207.917921 177.056504 
L 208.486584 177.744181 
L 209.055248 178.431857 
L 209.623912 179.119533 
L 210.192576 179.807209 
L 210.76124 180.494886 
L 211.329904 181.182562 
L 211.898568 181.870238 
L 212.467232 182.557914 
L 213.035895 183.245591 
L 213.604559 183.933267 
L 214.173223 184.620943 
L 214.741887 185.308619 
L 215.310551 185.996296 
L 215.879215 186.683972 
L 216.447879 187.371648 
L 217.016542 188.059324 
L 217.585206 188.747 
L 218.15387 189.434677 
L 218.722534 190.122353 
L 219.291198 190.810029 
L 219.859862 191.497705 
L 220.428526 192.185382 
L 220.997189 192.873058 
L 221.565853 193.560734 
L 222.134517 194.24841 
L 222.703181 194.936087 
L 223.271845 195.623763 
L 223.840509 196.311439 
L 224.409173 196.999115 
L 224.977837 197.686792 
L 225.5465 198.374468 
L 226.115164 199.062144 
L 226.683828 199.74982 
L 227.252492 200.437496 
L 227.821156 201.125173 
L 228.38982 201.812849 
L 228.958484 202.500525 
L 229.527147 203.188201 
L 230.095811 203.875878 
L 230.664475 204.563554 
L 231.233139 205.25123 
L 231.801803 205.938906 
L 232.370467 206.626583 
L 232.939131 207.314259 
L 233.507795 208.001935 
L 234.076458 208.689611 
L 234.645122 209.377288 
L 235.213786 210.064964 
L 235.78245 210.75264 
" clip-path="url(#p4e72957b27)" style="fill: none; stroke: #d7b470; stroke-width: 1.6; stroke-linecap: square"/>
   </g>
   <g id="line2d_2">
    <path d="M 235.78245 210.75264 
L 459.09675 210.75264 
" clip-path="url(#p4e72957b27)" style="fill: none; stroke: #83b8d7; stroke-width: 1.6; stroke-linecap: square"/>
   </g>
   <g id="line2d_3">
    <path d="M 459.09675 210.75264 
L 460.566373 211.213237 
L 462.035995 211.670056 
L 463.505618 212.123141 
L 464.975241 212.572538 
L 466.444864 213.018293 
L 467.914486 213.46045 
L 469.384109 213.899051 
L 470.853732 214.33414 
L 472.323355 214.765759 
L 473.792977 215.193949 
L 475.2626 215.61875 
L 476.732223 216.040203 
L 478.201845 216.458347 
L 479.671468 216.873221 
L 481.141091 217.284863 
L 482.610714 217.693312 
L 484.080336 218.098603 
L 485.549959 218.500773 
L 487.019582 218.899858 
L 488.489205 219.295895 
L 489.958827 219.688916 
L 491.42845 220.078957 
L 492.898073 220.466052 
L 494.367695 220.850233 
L 495.837318 221.231534 
L 497.306941 221.609986 
L 498.776564 221.985622 
L 500.246186 222.358473 
L 501.715809 222.72857 
L 503.185432 223.095943 
L 504.655055 223.460622 
L 506.124677 223.822636 
L 507.5943 224.182016 
L 509.063923 224.538788 
L 510.533545 224.892983 
L 512.003168 225.244626 
L 513.472791 225.593747 
L 514.942414 225.940372 
L 516.412036 226.284527 
L 517.881659 226.62624 
L 519.351282 226.965535 
L 520.820905 227.302439 
L 522.290527 227.636976 
L 523.76015 227.969172 
L 525.229773 228.299051 
L 526.699395 228.626636 
L 528.169018 228.951953 
L 529.638641 229.275025 
L 531.108264 229.595874 
L 532.577886 229.914523 
L 534.047509 230.230996 
L 535.517132 230.545313 
L 536.986755 230.857498 
L 538.456377 231.167572 
L 539.926 231.475556 
L 541.395623 231.781471 
L 542.865245 232.085338 
L 544.334868 232.387178 
L 545.804491 232.68701 
L 547.274114 232.984855 
L 548.743736 233.280732 
L 550.213359 233.574661 
L 551.682982 233.866662 
L 553.152605 234.156752 
L 554.622227 234.44495 
L 556.09185 234.731276 
L 557.561473 235.015747 
L 559.031095 235.298381 
L 560.500718 235.579196 
L 561.970341 235.858209 
L 563.439964 236.135438 
L 564.909586 236.4109 
L 566.379209 236.684612 
L 567.848832 236.956589 
L 569.318455 237.22685 
L 570.788077 237.495409 
L 572.2577 237.762283 
L 573.727323 238.027488 
L 575.196945 238.291039 
L 576.666568 238.552952 
L 578.136191 238.813242 
L 579.605814 239.071924 
L 581.075436 239.329013 
L 582.545059 239.584523 
L 584.014682 239.838469 
L 585.484305 240.090866 
L 586.953927 240.341727 
L 588.42355 240.591067 
L 589.893173 240.838898 
L 591.362795 241.085236 
L 592.832418 241.330093 
L 594.302041 241.573483 
L 595.771664 241.815418 
L 597.241286 242.055913 
L 598.710909 242.294979 
L 600.180532 242.532629 
L 601.650155 242.768876 
L 603.119777 243.003733 
L 604.5894 243.237211 
" clip-path="url(#p4e72957b27)" style="fill: none; stroke: #9b6bff; stroke-width: 1.6; stroke-linecap: square"/>
   </g>
   <g id="patch_3">
    <path d="M 103.824 322.56 
L 103.824 84.672 
" style="fill: none; opacity: 0.5; stroke: #f4efe5; stroke-width: 0.8; stroke-linejoin: miter; stroke-linecap: square"/>
   </g>
   <g id="patch_4">
    <path d="M 103.824 322.56 
L 645.192 322.56 
" style="fill: none; opacity: 0.5; stroke: #f4efe5; stroke-width: 0.8; stroke-linejoin: miter; stroke-linecap: square"/>
   </g>
   <g id="text_1">
    <!-- Liquid -->
    <g style="fill: #d7b470" transform="translate(124.1253 167.63768) scale(0.11 -0.11)">
     <defs>
      <path id="DejaVuSans-4c" d="M 628 4666 
L 1259 4666 
L 1259 531 
L 3531 531 
L 3531 0 
L 628 0 
L 628 4666 
z
" transform="scale(0.015625)"/>
      <path id="DejaVuSans-69" d="M 603 3500 
L 1178 3500 
L 1178 0 
L 603 0 
L 603 3500 
z
M 603 4863 
L 1178 4863 
L 1178 4134 
L 603 4134 
L 603 4863 
z
" transform="scale(0.015625)"/>
      <path id="DejaVuSans-71" d="M 947 1747 
Q 947 1113 1208 752 
Q 1469 391 1925 391 
Q 2381 391 2643 752 
Q 2906 1113 2906 1747 
Q 2906 2381 2643 2742 
Q 2381 3103 1925 3103 
Q 1469 3103 1208 2742 
Q 947 2381 947 1747 
z
M 2906 525 
Q 2725 213 2448 61 
Q 2172 -91 1784 -91 
Q 1150 -91 751 415 
Q 353 922 353 1747 
Q 353 2572 751 3078 
Q 1150 3584 1784 3584 
Q 2172 3584 2448 3432 
Q 2725 3281 2906 2969 
L 2906 3500 
L 3481 3500 
L 3481 -1331 
L 2906 -1331 
L 2906 525 
z
" transform="scale(0.015625)"/>
      <path id="DejaVuSans-75" d="M 544 1381 
L 544 3500 
L 1119 3500 
L 1119 1403 
Q 1119 906 1312 657 
Q 1506 409 1894 409 
Q 2359 409 2629 706 
Q 2900 1003 2900 1516 
L 2900 3500 
L 3475 3500 
L 3475 0 
L 2900 0 
L 2900 538 
Q 2691 219 2414 64 
Q 2138 -91 1772 -91 
Q 1169 -91 856 284 
Q 544 659 544 1381 
z
M 1991 3584 
L 1991 3584 
z
" transform="scale(0.015625)"/>
      <path id="DejaVuSans-64" d="M 2906 2969 
L 2906 4863 
L 3481 4863 
L 3481 0 
L 2906 0 
L 2906 525 
Q 2725 213 2448 61 
Q 2172 -91 1784 -91 
Q 1150 -91 751 415 
Q 353 922 353 1747 
Q 353 2572 751 3078 
Q 1150 3584 1784 3584 
Q 2172 3584 2448 3432 
Q 2725 3281 2906 2969 
z
M 947 1747 
Q 947 1113 1208 752 
Q 1469 391 1925 391 
Q 2381 391 2643 752 
Q 2906 1113 2906 1747 
Q 2906 2381 2643 2742 
Q 2381 3103 1925 3103 
Q 1469 3103 1208 2742 
Q 947 2381 947 1747 
z
" transform="scale(0.015625)"/>
     </defs>
     <use xlink:href="#DejaVuSans-4c"/>
     <use xlink:href="#DejaVuSans-69" transform="translate(55.712891 0)"/>
     <use xlink:href="#DejaVuSans-71" transform="translate(83.496094 0)"/>
     <use xlink:href="#DejaVuSans-75" transform="translate(146.972656 0)"/>
     <use xlink:href="#DejaVuSans-69" transform="translate(210.351562 0)"/>
     <use xlink:href="#DejaVuSans-64" transform="translate(238.134766 0)"/>
    </g>
   </g>
   <g id="text_2">
    <!-- Liquid + vapor -->
    <g style="fill: #83b8d7" transform="translate(269.61795 191.42648) scale(0.11 -0.11)">
     <defs>
      <path id="DejaVuSans-20" transform="scale(0.015625)"/>
      <path id="DejaVuSans-2b" d="M 2944 4013 
L 2944 2272 
L 4684 2272 
L 4684 1741 
L 2944 1741 
L 2944 0 
L 2419 0 
L 2419 1741 
L 678 1741 
L 678 2272 
L 2419 2272 
L 2419 4013 
L 2944 4013 
z
" transform="scale(0.015625)"/>
      <path id="DejaVuSans-76" d="M 191 3500 
L 800 3500 
L 1894 563 
L 2988 3500 
L 3597 3500 
L 2284 0 
L 1503 0 
L 191 3500 
z
" transform="scale(0.015625)"/>
      <path id="DejaVuSans-61" d="M 2194 1759 
Q 1497 1759 1228 1600 
Q 959 1441 959 1056 
Q 959 750 1161 570 
Q 1363 391 1709 391 
Q 2188 391 2477 730 
Q 2766 1069 2766 1631 
L 2766 1759 
L 2194 1759 
z
M 3341 1997 
L 3341 0 
L 2766 0 
L 2766 531 
Q 2569 213 2275 61 
Q 1981 -91 1556 -91 
Q 1019 -91 701 211 
Q 384 513 384 1019 
Q 384 1609 779 1909 
Q 1175 2209 1959 2209 
L 2766 2209 
L 2766 2266 
Q 2766 2663 2505 2880 
Q 2244 3097 1772 3097 
Q 1472 3097 1187 3025 
Q 903 2953 641 2809 
L 641 3341 
Q 956 3463 1253 3523 
Q 1550 3584 1831 3584 
Q 2591 3584 2966 3190 
Q 3341 2797 3341 1997 
z
" transform="scale(0.015625)"/>
      <path id="DejaVuSans-70" d="M 1159 525 
L 1159 -1331 
L 581 -1331 
L 581 3500 
L 1159 3500 
L 1159 2969 
Q 1341 3281 1617 3432 
Q 1894 3584 2278 3584 
Q 2916 3584 3314 3078 
Q 3713 2572 3713 1747 
Q 3713 922 3314 415 
Q 2916 -91 2278 -91 
Q 1894 -91 1617 61 
Q 1341 213 1159 525 
z
M 3116 1747 
Q 3116 2381 2855 2742 
Q 2594 3103 2138 3103 
Q 1681 3103 1420 2742 
Q 1159 2381 1159 1747 
Q 1159 1113 1420 752 
Q 1681 391 2138 391 
Q 2594 391 2855 752 
Q 3116 1113 3116 1747 
z
" transform="scale(0.015625)"/>
      <path id="DejaVuSans-6f" d="M 1959 3097 
Q 1497 3097 1228 2736 
Q 959 2375 959 1747 
Q 959 1119 1226 758 
Q 1494 397 1959 397 
Q 2419 397 2687 759 
Q 2956 1122 2956 1747 
Q 2956 2369 2687 2733 
Q 2419 3097 1959 3097 
z
M 1959 3584 
Q 2709 3584 3137 3096 
Q 3566 2609 3566 1747 
Q 3566 888 3137 398 
Q 2709 -91 1959 -91 
Q 1206 -91 779 398 
Q 353 888 353 1747 
Q 353 2609 779 3096 
Q 1206 3584 1959 3584 
z
" transform="scale(0.015625)"/>
      <path id="DejaVuSans-72" d="M 2631 2963 
Q 2534 3019 2420 3045 
Q 2306 3072 2169 3072 
Q 1681 3072 1420 2755 
Q 1159 2438 1159 1844 
L 1159 0 
L 581 0 
L 581 3500 
L 1159 3500 
L 1159 2956 
Q 1341 3275 1631 3429 
Q 1922 3584 2338 3584 
Q 2397 3584 2469 3576 
Q 2541 3569 2628 3553 
L 2631 2963 
z
" transform="scale(0.015625)"/>
     </defs>
     <use xlink:href="#DejaVuSans-4c"/>
     <use xlink:href="#DejaVuSans-69" transform="translate(55.712891 0)"/>
     <use xlink:href="#DejaVuSans-71" transform="translate(83.496094 0)"/>
     <use xlink:href="#DejaVuSans-75" transform="translate(146.972656 0)"/>
     <use xlink:href="#DejaVuSans-69" transform="translate(210.351562 0)"/>
     <use xlink:href="#DejaVuSans-64" transform="translate(238.134766 0)"/>
     <use xlink:href="#DejaVuSans-20" transform="translate(301.611328 0)"/>
     <use xlink:href="#DejaVuSans-2b" transform="translate(333.398438 0)"/>
     <use xlink:href="#DejaVuSans-20" transform="translate(417.1875 0)"/>
     <use xlink:href="#DejaVuSans-76" transform="translate(448.974609 0)"/>
     <use xlink:href="#DejaVuSans-61" transform="translate(508.154297 0)"/>
     <use xlink:href="#DejaVuSans-70" transform="translate(569.433594 0)"/>
     <use xlink:href="#DejaVuSans-6f" transform="translate(632.910156 0)"/>
     <use xlink:href="#DejaVuSans-72" transform="translate(694.091797 0)"/>
    </g>
   </g>
   <g id="text_3">
    <!-- Vapor -->
    <g style="fill: #9b6bff" transform="translate(499.69935 179.056304) scale(0.11 -0.11)">
     <defs>
      <path id="DejaVuSans-56" d="M 1831 0 
L 50 4666 
L 709 4666 
L 2188 738 
L 3669 4666 
L 4325 4666 
L 2547 0 
L 1831 0 
z
" transform="scale(0.015625)"/>
     </defs>
     <use xlink:href="#DejaVuSans-56"/>
     <use xlink:href="#DejaVuSans-61" transform="translate(60.658203 0)"/>
     <use xlink:href="#DejaVuSans-70" transform="translate(121.9375 0)"/>
     <use xlink:href="#DejaVuSans-6f" transform="translate(185.414062 0)"/>
     <use xlink:href="#DejaVuSans-72" transform="translate(246.595703 0)"/>
    </g>
   </g>
   <g id="PathCollection_1">
    <defs>
     <path id="m91cab8c342" d="M 0 2.061553 
C 0.54673 2.061553 1.071141 1.844335 1.457738 1.457738 
C 1.844335 1.071141 2.061553 0.54673 2.061553 0 
C 2.061553 -0.54673 1.844335 -1.071141 1.457738 -1.457738 
C 1.071141 -1.844335 0.54673 -2.061553 0 -2.061553 
C -0.54673 -2.061553 -1.071141 -1.844335 -1.457738 -1.457738 
C -1.844335 -1.071141 -2.061553 -0.54673 -2.061553 0 
C -2.061553 0.54673 -1.844335 1.071141 -1.457738 1.457738 
C -1.071141 1.844335 -0.54673 2.061553 0 2.061553 
z
" style="stroke: #83b8d7"/>
    </defs>
    <g clip-path="url(#p4e72957b27)">
     <use xlink:href="#m91cab8c342" x="235.78245" y="210.75264" style="fill: #83b8d7; stroke: #83b8d7"/>
     <use xlink:href="#m91cab8c342" x="459.09675" y="210.75264" style="fill: #83b8d7; stroke: #83b8d7"/>
    </g>
   </g>
  </g>
  <g id="text_4">
   <!-- 07  A two-phase isotherm -->
   <g style="fill: #f4efe5" transform="translate(57.8448 40.645031) scale(0.19 -0.19)">
    <defs>
     <path id="DejaVuSerif-30" d="M 2034 219 
Q 2513 219 2750 744 
Q 2988 1269 2988 2328 
Q 2988 3391 2750 3916 
Q 2513 4441 2034 4441 
Q 1556 4441 1318 3916 
Q 1081 3391 1081 2328 
Q 1081 1269 1318 744 
Q 1556 219 2034 219 
z
M 2034 -91 
Q 1275 -91 848 546 
Q 422 1184 422 2328 
Q 422 3475 848 4112 
Q 1275 4750 2034 4750 
Q 2797 4750 3222 4112 
Q 3647 3475 3647 2328 
Q 3647 1184 3222 546 
Q 2797 -91 2034 -91 
z
" transform="scale(0.015625)"/>
     <path id="DejaVuSerif-37" d="M 3609 4347 
L 1784 0 
L 1319 0 
L 3059 4153 
L 903 4153 
L 903 3578 
L 538 3578 
L 538 4666 
L 3609 4666 
L 3609 4347 
z
" transform="scale(0.015625)"/>
     <path id="DejaVuSerif-20" transform="scale(0.015625)"/>
     <path id="DejaVuSerif-41" d="M 1281 1691 
L 2994 1691 
L 2138 3909 
L 1281 1691 
z
M -38 0 
L -38 331 
L 372 331 
L 2034 4666 
L 2559 4666 
L 4225 331 
L 4684 331 
L 4684 0 
L 2988 0 
L 2988 331 
L 3506 331 
L 3116 1356 
L 1153 1356 
L 763 331 
L 1275 331 
L 1275 0 
L -38 0 
z
" transform="scale(0.015625)"/>
     <path id="DejaVuSerif-74" d="M 691 2988 
L 184 2988 
L 184 3322 
L 691 3322 
L 691 4353 
L 1269 4353 
L 1269 3322 
L 2350 3322 
L 2350 2988 
L 1269 2988 
L 1269 878 
Q 1269 456 1350 337 
Q 1431 219 1650 219 
Q 1875 219 1978 351 
Q 2081 484 2088 781 
L 2522 781 
Q 2497 328 2275 118 
Q 2053 -91 1600 -91 
Q 1103 -91 897 129 
Q 691 350 691 878 
L 691 2988 
z
" transform="scale(0.015625)"/>
     <path id="DejaVuSerif-77" d="M 3072 3322 
L 3922 728 
L 4672 2988 
L 4191 2988 
L 4191 3322 
L 5394 3322 
L 5394 2988 
L 5025 2988 
L 4038 0 
L 3559 0 
L 2741 2484 
L 1919 0 
L 1459 0 
L 475 2988 
L 103 2988 
L 103 3322 
L 1606 3322 
L 1606 2988 
L 1069 2988 
L 1813 728 
L 2669 3322 
L 3072 3322 
z
" transform="scale(0.015625)"/>
     <path id="DejaVuSerif-6f" d="M 1925 219 
Q 2388 219 2623 584 
Q 2859 950 2859 1663 
Q 2859 2375 2623 2739 
Q 2388 3103 1925 3103 
Q 1463 3103 1227 2739 
Q 991 2375 991 1663 
Q 991 950 1228 584 
Q 1466 219 1925 219 
z
M 1925 -91 
Q 1200 -91 759 389 
Q 319 869 319 1663 
Q 319 2456 758 2934 
Q 1197 3413 1925 3413 
Q 2653 3413 3092 2934 
Q 3531 2456 3531 1663 
Q 3531 869 3092 389 
Q 2653 -91 1925 -91 
z
" transform="scale(0.015625)"/>
     <path id="DejaVuSerif-2d" d="M 281 1959 
L 1881 1959 
L 1881 1472 
L 281 1472 
L 281 1959 
z
" transform="scale(0.015625)"/>
     <path id="DejaVuSerif-70" d="M 1313 1825 
L 1313 1497 
Q 1313 897 1542 583 
Q 1772 269 2209 269 
Q 2650 269 2876 622 
Q 3103 975 3103 1663 
Q 3103 2353 2876 2703 
Q 2650 3053 2209 3053 
Q 1772 3053 1542 2737 
Q 1313 2422 1313 1825 
z
M 738 2988 
L 184 2988 
L 184 3322 
L 1313 3322 
L 1313 2803 
Q 1481 3116 1742 3264 
Q 2003 3413 2388 3413 
Q 3000 3413 3387 2928 
Q 3775 2444 3775 1663 
Q 3775 881 3387 395 
Q 3000 -91 2388 -91 
Q 2003 -91 1742 57 
Q 1481 206 1313 519 
L 1313 -997 
L 1856 -997 
L 1856 -1331 
L 184 -1331 
L 184 -997 
L 738 -997 
L 738 2988 
z
" transform="scale(0.015625)"/>
     <path id="DejaVuSerif-68" d="M 263 0 
L 263 331 
L 781 331 
L 781 4531 
L 231 4531 
L 231 4863 
L 1356 4863 
L 1356 2731 
Q 1516 3069 1770 3241 
Q 2025 3413 2363 3413 
Q 2913 3413 3172 3097 
Q 3431 2781 3431 2113 
L 3431 331 
L 3944 331 
L 3944 0 
L 2356 0 
L 2356 331 
L 2853 331 
L 2853 1931 
Q 2853 2541 2704 2764 
Q 2556 2988 2175 2988 
Q 1775 2988 1565 2697 
Q 1356 2406 1356 1850 
L 1356 331 
L 1856 331 
L 1856 0 
L 263 0 
z
" transform="scale(0.015625)"/>
     <path id="DejaVuSerif-61" d="M 2547 1044 
L 2547 1747 
L 1806 1747 
Q 1378 1747 1168 1562 
Q 959 1378 959 997 
Q 959 650 1171 447 
Q 1384 244 1747 244 
Q 2106 244 2326 466 
Q 2547 688 2547 1044 
z
M 3122 2075 
L 3122 331 
L 3634 331 
L 3634 0 
L 2547 0 
L 2547 359 
Q 2356 128 2106 18 
Q 1856 -91 1522 -91 
Q 969 -91 644 203 
Q 319 497 319 997 
Q 319 1513 691 1797 
Q 1063 2081 1741 2081 
L 2547 2081 
L 2547 2309 
Q 2547 2688 2317 2895 
Q 2088 3103 1672 3103 
Q 1328 3103 1125 2947 
Q 922 2791 872 2484 
L 575 2484 
L 575 3156 
Q 875 3284 1158 3348 
Q 1441 3413 1709 3413 
Q 2400 3413 2761 3070 
Q 3122 2728 3122 2075 
z
" transform="scale(0.015625)"/>
     <path id="DejaVuSerif-73" d="M 359 184 
L 359 959 
L 691 959 
Q 703 588 923 403 
Q 1144 219 1575 219 
Q 1963 219 2166 364 
Q 2369 509 2369 788 
Q 2369 1006 2220 1140 
Q 2072 1275 1594 1428 
L 1178 1569 
Q 750 1706 558 1912 
Q 366 2119 366 2438 
Q 366 2894 700 3153 
Q 1034 3413 1625 3413 
Q 1888 3413 2178 3344 
Q 2469 3275 2778 3144 
L 2778 2419 
L 2447 2419 
Q 2434 2741 2221 2922 
Q 2009 3103 1644 3103 
Q 1281 3103 1095 2975 
Q 909 2847 909 2591 
Q 909 2381 1050 2254 
Q 1191 2128 1613 1997 
L 2069 1856 
Q 2541 1709 2748 1489 
Q 2956 1269 2956 922 
Q 2956 450 2595 179 
Q 2234 -91 1600 -91 
Q 1278 -91 972 -22 
Q 666 47 359 184 
z
" transform="scale(0.015625)"/>
     <path id="DejaVuSerif-65" d="M 3469 1600 
L 991 1600 
L 991 1575 
Q 991 903 1244 561 
Q 1497 219 1991 219 
Q 2369 219 2611 417 
Q 2853 616 2950 1006 
L 3413 1006 
Q 3275 459 2904 184 
Q 2534 -91 1931 -91 
Q 1203 -91 761 389 
Q 319 869 319 1663 
Q 319 2450 753 2931 
Q 1188 3413 1894 3413 
Q 2647 3413 3050 2948 
Q 3453 2484 3469 1600 
z
M 2791 1931 
Q 2772 2513 2545 2808 
Q 2319 3103 1894 3103 
Q 1497 3103 1269 2806 
Q 1041 2509 991 1931 
L 2791 1931 
z
" transform="scale(0.015625)"/>
     <path id="DejaVuSerif-69" d="M 622 4353 
Q 622 4497 726 4603 
Q 831 4709 978 4709 
Q 1122 4709 1226 4603 
Q 1331 4497 1331 4353 
Q 1331 4206 1228 4103 
Q 1125 4000 978 4000 
Q 831 4000 726 4103 
Q 622 4206 622 4353 
z
M 1356 331 
L 1900 331 
L 1900 0 
L 231 0 
L 231 331 
L 781 331 
L 781 2988 
L 231 2988 
L 231 3322 
L 1356 3322 
L 1356 331 
z
" transform="scale(0.015625)"/>
     <path id="DejaVuSerif-72" d="M 3059 3328 
L 3059 2497 
L 2728 2497 
Q 2713 2744 2591 2866 
Q 2469 2988 2234 2988 
Q 1809 2988 1582 2694 
Q 1356 2400 1356 1850 
L 1356 331 
L 2022 331 
L 2022 0 
L 263 0 
L 263 331 
L 781 331 
L 781 2994 
L 231 2994 
L 231 3322 
L 1356 3322 
L 1356 2731 
Q 1525 3078 1790 3245 
Q 2056 3413 2438 3413 
Q 2578 3413 2733 3391 
Q 2888 3369 3059 3328 
z
" transform="scale(0.015625)"/>
     <path id="DejaVuSerif-6d" d="M 3316 2675 
Q 3481 3041 3739 3227 
Q 3997 3413 4341 3413 
Q 4863 3413 5119 3089 
Q 5375 2766 5375 2113 
L 5375 331 
L 5894 331 
L 5894 0 
L 4300 0 
L 4300 331 
L 4800 331 
L 4800 2047 
Q 4800 2556 4650 2772 
Q 4500 2988 4153 2988 
Q 3769 2988 3567 2697 
Q 3366 2406 3366 1850 
L 3366 331 
L 3866 331 
L 3866 0 
L 2291 0 
L 2291 331 
L 2791 331 
L 2791 2069 
Q 2791 2566 2641 2777 
Q 2491 2988 2144 2988 
Q 1759 2988 1557 2697 
Q 1356 2406 1356 1850 
L 1356 331 
L 1856 331 
L 1856 0 
L 263 0 
L 263 331 
L 781 331 
L 781 2994 
L 231 2994 
L 231 3322 
L 1356 3322 
L 1356 2731 
Q 1516 3063 1762 3238 
Q 2009 3413 2322 3413 
Q 2709 3413 2968 3220 
Q 3228 3028 3316 2675 
z
" transform="scale(0.015625)"/>
    </defs>
    <use xlink:href="#DejaVuSerif-30"/>
    <use xlink:href="#DejaVuSerif-37" transform="translate(63.623047 0)"/>
    <use xlink:href="#DejaVuSerif-20" transform="translate(127.246094 0)"/>
    <use xlink:href="#DejaVuSerif-20" transform="translate(159.033203 0)"/>
    <use xlink:href="#DejaVuSerif-41" transform="translate(190.820312 0)"/>
    <use xlink:href="#DejaVuSerif-20" transform="translate(263.037109 0)"/>
    <use xlink:href="#DejaVuSerif-74" transform="translate(294.824219 0)"/>
    <use xlink:href="#DejaVuSerif-77" transform="translate(335.009766 0)"/>
    <use xlink:href="#DejaVuSerif-6f" transform="translate(420.605469 0)"/>
    <use xlink:href="#DejaVuSerif-2d" transform="translate(480.810547 0)"/>
    <use xlink:href="#DejaVuSerif-70" transform="translate(514.599609 0)"/>
    <use xlink:href="#DejaVuSerif-68" transform="translate(578.613281 0)"/>
    <use xlink:href="#DejaVuSerif-61" transform="translate(643.017578 0)"/>
    <use xlink:href="#DejaVuSerif-73" transform="translate(702.636719 0)"/>
    <use xlink:href="#DejaVuSerif-65" transform="translate(753.955078 0)"/>
    <use xlink:href="#DejaVuSerif-20" transform="translate(813.134766 0)"/>
    <use xlink:href="#DejaVuSerif-69" transform="translate(844.921875 0)"/>
    <use xlink:href="#DejaVuSerif-73" transform="translate(876.904297 0)"/>
    <use xlink:href="#DejaVuSerif-6f" transform="translate(928.222656 0)"/>
    <use xlink:href="#DejaVuSerif-74" transform="translate(988.427734 0)"/>
    <use xlink:href="#DejaVuSerif-68" transform="translate(1028.613281 0)"/>
    <use xlink:href="#DejaVuSerif-65" transform="translate(1093.017578 0)"/>
    <use xlink:href="#DejaVuSerif-72" transform="translate(1152.197266 0)"/>
    <use xlink:href="#DejaVuSerif-6d" transform="translate(1200 0)"/>
   </g>
  </g>
  <g id="text_5">
   <!-- Volume V -->
   <g style="fill: #acb4c5" transform="translate(345.341672 356.832) scale(0.11 -0.11)">
    <defs>
     <path id="DejaVuSans-Bold-56" d="M 31 4666 
L 1241 4666 
L 2478 1222 
L 3713 4666 
L 4922 4666 
L 3194 0 
L 1759 0 
L 31 4666 
z
" transform="scale(0.015625)"/>
     <path id="DejaVuSans-Bold-6f" d="M 2203 2784 
Q 1831 2784 1636 2517 
Q 1441 2250 1441 1747 
Q 1441 1244 1636 976 
Q 1831 709 2203 709 
Q 2569 709 2762 976 
Q 2956 1244 2956 1747 
Q 2956 2250 2762 2517 
Q 2569 2784 2203 2784 
z
M 2203 3584 
Q 3106 3584 3614 3096 
Q 4122 2609 4122 1747 
Q 4122 884 3614 396 
Q 3106 -91 2203 -91 
Q 1297 -91 786 396 
Q 275 884 275 1747 
Q 275 2609 786 3096 
Q 1297 3584 2203 3584 
z
" transform="scale(0.015625)"/>
     <path id="DejaVuSans-Bold-6c" d="M 538 4863 
L 1656 4863 
L 1656 0 
L 538 0 
L 538 4863 
z
" transform="scale(0.015625)"/>
     <path id="DejaVuSans-Bold-75" d="M 500 1363 
L 500 3500 
L 1625 3500 
L 1625 3150 
Q 1625 2866 1622 2436 
Q 1619 2006 1619 1863 
Q 1619 1441 1641 1255 
Q 1663 1069 1716 984 
Q 1784 875 1895 815 
Q 2006 756 2150 756 
Q 2500 756 2700 1025 
Q 2900 1294 2900 1772 
L 2900 3500 
L 4019 3500 
L 4019 0 
L 2900 0 
L 2900 506 
Q 2647 200 2364 54 
Q 2081 -91 1741 -91 
Q 1134 -91 817 281 
Q 500 653 500 1363 
z
" transform="scale(0.015625)"/>
     <path id="DejaVuSans-Bold-6d" d="M 3781 2919 
Q 3994 3244 4286 3414 
Q 4578 3584 4928 3584 
Q 5531 3584 5847 3212 
Q 6163 2841 6163 2131 
L 6163 0 
L 5038 0 
L 5038 1825 
Q 5041 1866 5042 1909 
Q 5044 1953 5044 2034 
Q 5044 2406 4934 2573 
Q 4825 2741 4581 2741 
Q 4263 2741 4089 2478 
Q 3916 2216 3909 1719 
L 3909 0 
L 2784 0 
L 2784 1825 
Q 2784 2406 2684 2573 
Q 2584 2741 2328 2741 
Q 2006 2741 1831 2477 
Q 1656 2213 1656 1722 
L 1656 0 
L 531 0 
L 531 3500 
L 1656 3500 
L 1656 2988 
Q 1863 3284 2130 3434 
Q 2397 3584 2719 3584 
Q 3081 3584 3359 3409 
Q 3638 3234 3781 2919 
z
" transform="scale(0.015625)"/>
     <path id="DejaVuSans-Bold-65" d="M 4031 1759 
L 4031 1441 
L 1416 1441 
Q 1456 1047 1700 850 
Q 1944 653 2381 653 
Q 2734 653 3104 758 
Q 3475 863 3866 1075 
L 3866 213 
Q 3469 63 3072 -14 
Q 2675 -91 2278 -91 
Q 1328 -91 801 392 
Q 275 875 275 1747 
Q 275 2603 792 3093 
Q 1309 3584 2216 3584 
Q 3041 3584 3536 3087 
Q 4031 2591 4031 1759 
z
M 2881 2131 
Q 2881 2450 2695 2645 
Q 2509 2841 2209 2841 
Q 1884 2841 1681 2658 
Q 1478 2475 1428 2131 
L 2881 2131 
z
" transform="scale(0.015625)"/>
     <path id="DejaVuSans-Bold-20" transform="scale(0.015625)"/>
    </defs>
    <use xlink:href="#DejaVuSans-Bold-56"/>
    <use xlink:href="#DejaVuSans-Bold-6f" transform="translate(71.892578 0)"/>
    <use xlink:href="#DejaVuSans-Bold-6c" transform="translate(140.59375 0)"/>
    <use xlink:href="#DejaVuSans-Bold-75" transform="translate(174.871094 0)"/>
    <use xlink:href="#DejaVuSans-Bold-6d" transform="translate(246.0625 0)"/>
    <use xlink:href="#DejaVuSans-Bold-65" transform="translate(350.261719 0)"/>
    <use xlink:href="#DejaVuSans-Bold-20" transform="translate(418.083984 0)"/>
    <use xlink:href="#DejaVuSans-Bold-56" transform="translate(452.898438 0)"/>
   </g>
  </g>
  <g id="text_6">
   <!-- Pressure P -->
   <g style="fill: #acb4c5" transform="translate(63.978281 230.892844) rotate(-90) scale(0.11 -0.11)">
    <defs>
     <path id="DejaVuSans-Bold-50" d="M 588 4666 
L 2584 4666 
Q 3475 4666 3951 4270 
Q 4428 3875 4428 3144 
Q 4428 2409 3951 2014 
Q 3475 1619 2584 1619 
L 1791 1619 
L 1791 0 
L 588 0 
L 588 4666 
z
M 1791 3794 
L 1791 2491 
L 2456 2491 
Q 2806 2491 2997 2661 
Q 3188 2831 3188 3144 
Q 3188 3456 2997 3625 
Q 2806 3794 2456 3794 
L 1791 3794 
z
" transform="scale(0.015625)"/>
     <path id="DejaVuSans-Bold-72" d="M 3138 2547 
Q 2991 2616 2845 2648 
Q 2700 2681 2553 2681 
Q 2122 2681 1889 2404 
Q 1656 2128 1656 1613 
L 1656 0 
L 538 0 
L 538 3500 
L 1656 3500 
L 1656 2925 
Q 1872 3269 2151 3426 
Q 2431 3584 2822 3584 
Q 2878 3584 2943 3579 
Q 3009 3575 3134 3559 
L 3138 2547 
z
" transform="scale(0.015625)"/>
     <path id="DejaVuSans-Bold-73" d="M 3272 3391 
L 3272 2541 
Q 2913 2691 2578 2766 
Q 2244 2841 1947 2841 
Q 1628 2841 1473 2761 
Q 1319 2681 1319 2516 
Q 1319 2381 1436 2309 
Q 1553 2238 1856 2203 
L 2053 2175 
Q 2913 2066 3209 1816 
Q 3506 1566 3506 1031 
Q 3506 472 3093 190 
Q 2681 -91 1863 -91 
Q 1516 -91 1145 -36 
Q 775 19 384 128 
L 384 978 
Q 719 816 1070 734 
Q 1422 653 1784 653 
Q 2113 653 2278 743 
Q 2444 834 2444 1013 
Q 2444 1163 2330 1236 
Q 2216 1309 1875 1350 
L 1678 1375 
Q 931 1469 631 1722 
Q 331 1975 331 2491 
Q 331 3047 712 3315 
Q 1094 3584 1881 3584 
Q 2191 3584 2531 3537 
Q 2872 3491 3272 3391 
z
" transform="scale(0.015625)"/>
    </defs>
    <use xlink:href="#DejaVuSans-Bold-50"/>
    <use xlink:href="#DejaVuSans-Bold-72" transform="translate(73.291016 0)"/>
    <use xlink:href="#DejaVuSans-Bold-65" transform="translate(122.607422 0)"/>
    <use xlink:href="#DejaVuSans-Bold-73" transform="translate(190.429688 0)"/>
    <use xlink:href="#DejaVuSans-Bold-73" transform="translate(249.951172 0)"/>
    <use xlink:href="#DejaVuSans-Bold-75" transform="translate(309.472656 0)"/>
    <use xlink:href="#DejaVuSans-Bold-72" transform="translate(380.664062 0)"/>
    <use xlink:href="#DejaVuSans-Bold-65" transform="translate(429.980469 0)"/>
    <use xlink:href="#DejaVuSans-Bold-20" transform="translate(497.802734 0)"/>
    <use xlink:href="#DejaVuSans-Bold-50" transform="translate(532.617188 0)"/>
   </g>
  </g>
 </g>
 <defs>
  <clipPath id="p4e72957b27">
   <rect x="103.824" y="84.672" width="541.368" height="237.888"/>
  </clipPath>
 </defs>
</svg>
